<svg xmlns="http://www.w3.org/2000/svg" viewBox="0 0 155.06 37.03"><defs><style>.cls-1{fill:#fff;}</style></defs><title>Asset 3</title><g id="Layer_2" data-name="Layer 2"><g id="Layer_1-2" data-name="Layer 1"><path class="cls-1" d="M59.28,11.89l-2.33,3h-.48l-2.32-3v5.58H52.82V9.44h1l2.87,3.77,2.88-3.77h1v8.07H59.28Z"/><path class="cls-1" d="M71.19,17.51h-1.4l-.66-1.65H65.28l-.65,1.65H63.22l3.31-8.07h1.35Zm-5.47-2.78h3L67.2,11Z"/><path class="cls-1" d="M77.13,9.44c1.9,0,3.1,1,3.1,2.7a2.52,2.52,0,0,1-1.71,2.49v.07l1.94,2.63v.18H79l-1.93-2.66H75.14v2.66H73.81V9.44Zm-.07,1.18H75.14v3h2c1,0,1.7-.48,1.7-1.5S78.14,10.62,77.06,10.62Z"/><path class="cls-1" d="M82.67,9.44h6.39v1.18H86.53v6.89H85.2V10.62H82.67Z"/><path class="cls-1" d="M93.15,17.51H91.82V9.44h1.33Z"/><path class="cls-1" d="M103.67,17.51h-1L98,11.78v5.73H96.69V9.44h1l4.63,5.71V9.44h1.34Z"/><path class="cls-1" d="M111.27,13.49a4,4,0,1,1,8.09,0,4,4,0,1,1-8.09,0Zm6.73,0a2.69,2.69,0,1,0-5.35,0,2.69,2.69,0,1,0,5.35,0Z"/><path class="cls-1" d="M122.45,17.51V9.44h1.33v6.89h4v1.18Z"/><path class="cls-1" d="M138,17.51h-1.4L136,15.86H132.1l-.64,1.65h-1.41l3.31-8.07h1.34Zm-5.46-2.78h3L134,11Z"/><path class="cls-1" d="M141,15.68a3.88,3.88,0,0,0,2.28.78c1.09,0,1.56-.45,1.56-1.11s-.37-.93-1.83-1.38c-1.8-.53-2.67-1.14-2.67-2.4s1.05-2.31,3-2.31a4,4,0,0,1,2.81.82l-.73,1.1a3.28,3.28,0,0,0-2.08-.68c-.92,0-1.5.37-1.5,1s.43.82,1.79,1.23c2,.55,2.74,1.26,2.74,2.51s-1,2.45-3,2.45a4.36,4.36,0,0,1-3.05-1Z"/><path class="cls-1" d="M148.72,16.56l4.56-5.94h-4.42V9.44h6.2v1l-4.49,5.91H155v1.18h-6.27Z"/><path class="cls-1" d="M52.4,24.19h2.75v.55H53.06v1.7H55V27H53.06v2.31H52.4Z"/><path class="cls-1" d="M57,24.26a6.64,6.64,0,0,1,1.26-.11,2.1,2.1,0,0,1,1.48.42,1.29,1.29,0,0,1,.4,1,1.35,1.35,0,0,1-1,1.3v0a1.27,1.27,0,0,1,.74,1,8,8,0,0,0,.4,1.4h-.68a5.7,5.7,0,0,1-.34-1.22c-.15-.7-.43-1-1-1H57.6v2.21H57Zm.65,2.32h.68c.7,0,1.15-.38,1.15-1s-.48-.94-1.17-.95a2.84,2.84,0,0,0-.66.06Z"/><path class="cls-1" d="M66.39,26.69A2.39,2.39,0,0,1,64,29.37a2.34,2.34,0,0,1-2.3-2.58,2.43,2.43,0,0,1,2.37-2.68A2.32,2.32,0,0,1,66.39,26.69Zm-4,.08c0,1.09.59,2.07,1.63,2.07s1.63-1,1.63-2.12-.53-2.07-1.63-2.07S62.43,25.65,62.43,26.77Z"/><path class="cls-1" d="M68.27,29.29v-5.1H69l1.63,2.58a14.32,14.32,0,0,1,.92,1.66h0c-.06-.68-.07-1.3-.07-2.1V24.19h.62v5.1h-.67L69.81,26.7a17.16,17.16,0,0,1-1-1.7h0c0,.64,0,1.25,0,2.1v2.18Z"/><path class="cls-1" d="M75.26,24.75H73.71v-.56h3.77v.56H75.92v4.54h-.66Z"/><path class="cls-1" d="M80.12,26.43v.49H78.25v-.49Z"/><path class="cls-1" d="M84.64,26.9h-2v1.84h2.21v.55H82v-5.1h2.75v.55H82.66v1.62h2Z"/><path class="cls-1" d="M86.66,29.29v-5.1h.71L89,26.77a16,16,0,0,1,.92,1.66h0c-.06-.68-.08-1.3-.08-2.1V24.19h.62v5.1h-.66L88.2,26.7a13.88,13.88,0,0,1-1-1.7h0c0,.64.06,1.25.06,2.1v2.18Z"/><path class="cls-1" d="M92.64,24.26a9.47,9.47,0,0,1,1.4-.11,2.93,2.93,0,0,1,2.07.64,2.35,2.35,0,0,1,.71,1.83,2.68,2.68,0,0,1-.73,2,3.13,3.13,0,0,1-2.26.74c-.46,0-.86,0-1.19-.06Zm.66,4.51a4.08,4.08,0,0,0,.66,0,2,2,0,0,0,2.18-2.17,1.83,1.83,0,0,0-2.07-2,4.3,4.3,0,0,0-.77.07Z"/><path class="cls-1" d="M101.1,24.26a9.59,9.59,0,0,1,1.4-.11,2.91,2.91,0,0,1,2.07.64,2.36,2.36,0,0,1,.72,1.83,2.72,2.72,0,0,1-.73,2,3.15,3.15,0,0,1-2.26.74c-.47,0-.86,0-1.2-.06Zm.66,4.51a4.22,4.22,0,0,0,.67,0,2,2,0,0,0,2.17-2.17,1.82,1.82,0,0,0-2.07-2,4.4,4.4,0,0,0-.77.07Z"/><path class="cls-1" d="M109.8,26.9h-2v1.84H110v.55h-2.87v-5.1h2.75v.55h-2.09v1.62h2Z"/><path class="cls-1" d="M113.1,29.29l-1.66-5.1h.71l.79,2.51c.22.69.41,1.31.55,1.91h0c.15-.59.36-1.23.59-1.9l.86-2.52h.7l-1.82,5.1Z"/><path class="cls-1" d="M119.89,26.9h-2v1.84h2.21v.55h-2.86v-5.1H120v.55h-2.1v1.62h2Z"/><path class="cls-1" d="M121.9,24.19h.66v4.55h2.18v.55H121.9Z"/><path class="cls-1" d="M130.65,26.69a2.39,2.39,0,0,1-2.37,2.68A2.33,2.33,0,0,1,126,26.79a2.43,2.43,0,0,1,2.37-2.68A2.32,2.32,0,0,1,130.65,26.69Zm-4,.08c0,1.09.59,2.07,1.63,2.07s1.64-1,1.64-2.12-.53-2.07-1.63-2.07S126.69,25.65,126.69,26.77Z"/><path class="cls-1" d="M132.53,24.25a8,8,0,0,1,1.27-.1,2.05,2.05,0,0,1,1.43.43,1.35,1.35,0,0,1,.44,1.06,1.47,1.47,0,0,1-.39,1.09,2.11,2.11,0,0,1-1.56.56,2.16,2.16,0,0,1-.53,0v2h-.66Zm.66,2.46a2.19,2.19,0,0,0,.55.05c.79,0,1.28-.38,1.28-1.09s-.48-1-1.21-1a2.69,2.69,0,0,0-.62.06Z"/><path class="cls-1" d="M140.09,26.9h-2v1.84h2.21v.55h-2.87v-5.1h2.75v.55h-2.09v1.62h2Z"/><path class="cls-1" d="M142.1,24.26a6.75,6.75,0,0,1,1.27-.11,2.05,2.05,0,0,1,1.47.42,1.26,1.26,0,0,1,.4,1,1.33,1.33,0,0,1-1,1.3v0a1.26,1.26,0,0,1,.75,1,8,8,0,0,0,.4,1.4h-.68a6.13,6.13,0,0,1-.35-1.22c-.15-.7-.42-1-1-1h-.62v2.21h-.66Zm.66,2.32h.68c.7,0,1.15-.38,1.15-1s-.48-.94-1.18-.95a2.8,2.8,0,0,0-.65.06Z"/><path class="cls-1" d="M15.85,15l9.9-5.72-9.9-5.71L6,9.29Zm-5.79-3.92,5.79-3.35,5.8,3.35-5.8,3.34Zm14.69-1.8-2.6,1.51-6.3-3.64L9.56,10.8,7,9.29l8.89-5.13Z"/><path class="cls-1" d="M15.85,0,.12,9.08,0,9.16V35.1L3.36,37l3.22-1.86.13-.08V16.94l9.14,5.27L25,16.94V35.09L28.35,37,31.7,35.1V9.16ZM31,9.3,15.85,18,.76,9.3,15.85.58ZM6.21,34.81l-2.6,1.5V15.15l2.61,1.5ZM25.5,16.65l2.61-1.5V36.3l-2.6-1.5ZM28.6,36.3v-22L15.85,21.64,3.1,14.28v22l-2.6-1.5V9.72l15.35,8.87L31.21,9.72V34.81Z"/></g></g></svg>